<svg width="107" height="16" viewBox="0 0 107 16" fill="none" xmlns="http://www.w3.org/2000/svg">
<path d="M47.7644 0.270121H29.3226V3.9278H36.0591V15.7316H41.0056V3.9278H47.7627V0.270121H47.7644ZM88.5582 0.270121V3.9278H95.2947V15.7316H100.241V3.9278H106.998V0.270121H88.5565H88.5582ZM24.3744 6.1958C23.433 6.05309 22.3452 5.96815 21.1009 5.94266L18.4693 5.90189C15.2491 5.86112 14.8481 5.21554 14.8481 4.57167C14.8481 3.9278 15.1217 3.24145 18.9116 3.24145H19.2489C23.3332 3.24145 23.6911 4.48843 23.7755 5.09153H28.87V4.88426C28.87 3.14801 27.932 1.28265 24.3762 0.448503C23.1679 0.164791 21.6568 0 19.7756 0H18.323C16.891 0 15.6931 0.0985347 14.688 0.27182V0H13.4247C7.33883 0 5.42667 1.76343 4.99984 3.71714V0.290508C1.09635 0.998938 0.209976 2.88979 0.209976 4.71777V4.90465C0.209976 6.86855 1.39755 8.52835 4.99984 9.16543V5.84413C5.45077 7.80633 7.46964 9.29114 12.54 9.43385L14.688 9.48312V9.18072C15.4849 9.31663 16.3971 9.40327 17.4383 9.43215L20.1336 9.49501C23.7548 9.57825 24.2385 10.1593 24.2385 11.0529C24.2385 11.8836 23.7755 12.694 19.6482 12.694H19.3539C15.3128 12.694 14.7637 11.1565 14.7018 10.2425H14.5864V12.694H14.4574C10.4162 12.694 9.86715 11.1565 9.80519 10.2425H0V10.4719C0 12.0943 0.600669 14.6409 4.99984 15.6093V12.2931C5.69001 14.1058 7.79493 16.0017 13.8446 16.0017H14.6863V15.633C15.7878 15.8658 17.1234 16.0017 18.7429 16.0017H20.1956C21.8685 16.0017 23.2437 15.8828 24.3744 15.6721C28.5636 14.8906 29.3743 12.8401 29.3743 10.8269V10.5364C29.3743 8.11043 27.8924 6.73264 24.3744 6.19749V6.1958ZM14.5847 5.91718L13.571 5.90189C10.3508 5.86112 9.94977 5.21554 9.94977 4.57167C9.94977 3.9278 10.2234 3.24145 14.0133 3.24145H14.3507C14.4315 3.24145 14.509 3.24145 14.5847 3.24315V5.91718ZM84.3949 8.22425V7.71289C86.0816 7.71289 87.5049 6.47951 87.5049 4.42727V4.28116C87.5049 2.05734 85.9267 0.270121 80.7048 0.270121H68.0735V15.7299H72.9787V10.2442H79.3778C81.7994 10.2442 82.6411 11.075 82.6411 12.9658V15.7299H87.5669V11.6764C87.5669 9.78892 85.9955 8.22425 84.3931 8.22425H84.3949ZM82.3898 5.29879C82.3898 6.14993 81.8011 6.81588 80.4105 6.81588H72.9787V3.78169H80.4105C81.8425 3.78169 82.3898 4.46804 82.3898 5.2784V5.29879ZM52.6007 0.270121L44.6853 15.7299H49.6748L51.0861 12.903H60.5815L62.0548 15.7299H67.3386L58.9585 0.270121H52.6007ZM52.8331 9.41346L55.5817 3.9278H55.9001L58.7692 9.41346H52.8331Z" fill="white"/>
</svg>
